<?xml version="1.0" encoding="utf-8"?>
<!-- Generator: Adobe Illustrator 18.1.1, SVG Export Plug-In . SVG Version: 6.00 Build 0)  -->
<svg version="1.1" id="Layer_1" xmlns="http://www.w3.org/2000/svg" xmlns:xlink="http://www.w3.org/1999/xlink" x="0px" y="0px"
	 viewBox="-1.8 19 209.7 62" enable-background="new -1.8 19 209.7 62" xml:space="preserve">
<g id="XMLID_1_">
	<g id="XMLID_703_">
		<path id="XMLID_708_" fill="#82BC00" d="M20.4,24.6H9.8c-0.2,0-0.4,0.2-0.4,0.4v10.6c0,0.2,0.2,0.4,0.4,0.4h10.6
			c0.2,0,0.4-0.2,0.4-0.4V25C20.7,24.8,20.5,24.6,20.4,24.6z"/>
		<path id="XMLID_707_" fill="#82BC00" d="M9.4,36.3c0-0.2-0.2-0.4-0.4-0.4H4.1c-0.2,0-0.4,0.2-0.4,0.4v4.9c0,0.2,0.2,0.4,0.4,0.4
			h4.9c0.2,0,0.4-0.2,0.4-0.4V36.3z"/>
		<path id="XMLID_706_" fill="#82BC00" d="M14.7,47.1H9.8c-0.2,0-0.4,0.2-0.4,0.4v4.9c0,0.2,0.2,0.4,0.4,0.4h4.9
			c0.2,0,0.4-0.2,0.4-0.4v-4.9C15.1,47.3,15,47.1,14.7,47.1z"/>
		<path id="XMLID_705_" fill="#82BC00" d="M0.6,41.6h-2.1c-0.2,0-0.4,0.2-0.4,0.4V44c0,0.2,0.2,0.4,0.4,0.4h2.1
			C0.8,44.4,1,44.2,1,44v-2.1C1,41.7,0.8,41.6,0.6,41.6z"/>
		<path id="XMLID_704_" fill="#82BC00" d="M2,19h-2.1c-0.2,0-0.4,0.2-0.4,0.4v2.1c0,0.2,0.2,0.4,0.4,0.4H2c0.2,0,0.4-0.2,0.4-0.4
			v-2.1C2.4,19.1,2.2,19,2,19z"/>
	</g>
	<path id="XMLID_702_" fill="#55565A" d="M50.8,36.5v10.1c0,0.3-0.2,0.6-0.6,0.6H32.6l0,0c-0.3,0-0.5,0.2-0.6,0.5v0.1l0,0v5.1h10.7
		c0.3,0,0.6,0.2,0.6,0.6v10.1c0,0.3-0.2,0.6-0.6,0.6H32v5.7h18.1c0.3,0,0.6,0.2,0.6,0.6v10.1c0,0.3-0.2,0.6-0.6,0.6H21.3
		c-0.3,0-0.6-0.2-0.6-0.6V47.8c0-0.3,0.2-0.6,0.6-0.6h8.8l0,0h1.3c0.3,0,0.5-0.2,0.6-0.5v-1l0,0v-5.2v-3.9c0-0.3,0.2-0.6,0.6-0.6
		h17.6C50.5,35.9,50.8,36.1,50.8,36.5z"/>
	<path id="XMLID_701_" fill="#55565A" d="M134.9,76.4h-27.3V60.6h24c0.3,0,0.6-0.2,0.6-0.6v-3.5c0-0.3-0.2-0.6-0.6-0.6h-24V40.6
		h26.9c0.3,0,0.6-0.2,0.6-0.6v-3.5c0-0.3-0.2-0.6-0.6-0.6h-31.5c-0.3,0-0.6,0.2-0.6,0.6v43.9c0,0.3,0.2,0.6,0.6,0.6h31.8
		c0.3,0,0.6-0.2,0.6-0.6v-3.5C135.5,76.6,135.2,76.4,134.9,76.4z"/>
	<path id="XMLID_6_" fill="#55565A" d="M72.7,35.9H57.5c-0.3,0-0.6,0.2-0.6,0.6v43.9c0,0.3,0.2,0.6,0.6,0.6h15.1
		c13.9,0,24-9.5,24-22.6C96.6,45.4,86.5,35.9,72.7,35.9z M72.7,76.3H62.1V40.6h10.6c11,0,18.7,7.4,18.7,17.9
		C91.3,69,83.7,76.3,72.7,76.3z"/>
	<path id="XMLID_697_" fill="#55565A" d="M185.1,35.9h-4.3c-0.2,0-0.4,0.1-0.5,0.2L164,60.5l-16.3-24.3c-0.1-0.2-0.3-0.2-0.5-0.2
		H143c-0.3,0-0.6,0.2-0.6,0.6v43.9c0,0.3,0.2,0.6,0.6,0.6h3.8c0.3,0,0.6-0.2,0.6-0.6V44.5l16.1,23.6c0.1,0.2,0.3,0.2,0.5,0.2l0,0
		c0.2,0,0.4-0.1,0.5-0.2l16.1-23.7v35.9c0,0.3,0.2,0.6,0.6,0.6h3.9c0.3,0,0.6-0.2,0.6-0.6V36.5C185.7,36.1,185.4,35.9,185.1,35.9z"
		/>
</g>
<path id="XMLID_47_" fill="#55565A" d="M191.2,35.9v1.5h2.5v6.8h1.6v-6.8h2.5v-1.5H191.2z M206.3,35.9l-2.5,3.9l-2.5-3.9h-1.7v8.2
	h1.5v-5.9l2.5,4h0.2l2.5-4v5.9h1.5v-8.2H206.3z"/>
</svg>
