<svg xmlns="http://www.w3.org/2000/svg" viewBox="0 0 312.62 70.2"><defs><style>.cls-1,.cls-3{fill:gray;}.cls-1,.cls-2{fill-rule:evenodd;}.cls-2{fill:#fdc61c;}</style></defs><title>DES-ART_logo_poziome</title><g id="Warstwa_2" data-name="Warstwa 2"><g id="Layer_1" data-name="Layer 1"><path class="cls-1" d="M312.62,27.86V24h-28.3v3.89h12V52.2h4.39V27.86Zm-52.27,12v-4.1h5.18c3.1,0,4.68-1.37,4.68-3.89S268.63,28,265.54,28h-5.18V24h5.18c5.76,0,9.29,2.88,9.29,7.85a7.92,7.92,0,0,1-7.06,7.92l7.92,12.46h-4.82l-8-12.38Zm0-15.84v4h-9.86v7.7h9.86v4.1h-9.86V52.2H246.1V24ZM219.17,45V41.26h5.47l-5.47-10.8V24h1.37L235.08,52.2h-4.75L226.66,45Zm0-21v6.55l-5.54,10.73h5.54V45h-7.49l-3.6,7.2H203.4L217.73,24Z"/><path class="cls-2" d="M194.18,43.78c0-6-4.61-9.07-13.68-9.07-5.83,0-8.71-.79-8.71-3.46,0-2.3,2.59-4.1,7.06-4.1a21.59,21.59,0,0,1,11.52,3.74l2.23-3.67a24.92,24.92,0,0,0-13.68-4.1c-7.27,0-11.66,3.46-11.66,8.14,0,6,4.82,7.2,13.46,7.34,5.9.14,8.86,1.58,8.86,4.9,0,3.1-3.17,5.47-8.42,5.47a24,24,0,0,1-12.89-4.1L166.1,48.6a29.91,29.91,0,0,0,15.48,4.46c7.92,0,12.6-4.25,12.6-9.29ZM99.86,52.13v-4c6.26-.5,9.5-4.54,9.5-10s-3.6-9.5-9.5-10V24c8.78.58,14,6.48,14,14.18s-5,13.46-14,14Zm55.58.07V48.1H132.12V39.17h14.47v-4.1H132.12v-7h22.1V24H127.66V52.2ZM99.86,24v4.1c-.36,0-.79-.07-1.22-.07H90.43V48.1h9.43v4a7.83,7.83,0,0,1-1.3.07H86V24h13.9Z"/><polygon class="cls-3" points="34.56 40.32 39.24 37.66 39.24 3.82 34.56 1.15 32.62 0 32.62 33.77 28.51 36.14 5.69 49.39 12.1 53.14 28.51 43.78 34.56 40.32"/><polygon class="cls-3" points="56.88 13.97 56.88 47.81 34.56 60.7 29.95 63.43 34.56 66.1 36.36 67.18 63.5 51.62 63.5 17.86 56.88 13.97"/><polygon class="cls-3" points="51.41 44.64 51.41 10.8 44.71 6.98 44.71 40.82 34.56 46.73 28.51 50.18 17.78 56.45 24.26 60.12 28.51 57.67 34.56 54.22 51.41 44.64"/><polygon class="cls-2" points="0 18.5 27.14 3.02 33.55 6.77 6.7 22.32 6.7 56.16 0 52.34 0 18.5"/><polygon class="cls-2" points="12.17 25.49 39.24 10.01 45.72 13.75 18.79 29.3 18.79 63.14 12.17 59.33 12.17 25.49"/><polygon class="cls-2" points="24.26 32.54 51.41 17.06 57.89 20.74 30.89 36.36 30.89 70.2 24.26 66.31 24.26 32.54"/></g></g></svg>